# xmcd
#
# Track frame offsets:
#	150
#	8462
#	19349
#	28478
#	38235
#	48690
#	61049
#	69459
#	81229
#	92383
#	103177
#	113175
#	125196
#	133145
#	143288
#	150988
#	157688
#	167077
#	176869
#	187331
#
# Disc length: 2600 seconds
# Revision: 52
# Processed by: cddbd v1.5.2PL0 Copyright (c) Steve Scherf et al.
# Submitted via: dBpowerAMP V12.0
#
DISCID=0d0a2614
DTITLE=Johnny Cash - Lonesome in Black: The Legendary Sun Recordings CD 2
DYEAR=2004
DGENRE=Country
TTITLE0=Always Alone
TTITLE1=Belshazar
TTITLE2=Blue Train
TTITLE3=Born to Lose
TTITLE4=Cold, Cold Heart
TTITLE5=Next in Line
TTITLE6=Country Boy
TTITLE7=Doin' My Time
TTITLE8=Don't Make Me Go
TTITLE9=Fool's Hall of Fame
TTITLE10=Goodbye Little Darlin'
TTITLE11=Goodnight Irene
TTITLE12=I Can't Help It (If I'm Still in Love With You)
TTITLE13=I Was There When It Happened
TTITLE14=If the Good Lord's Willing
TTITLE15=Leave That Junk Alone
TTITLE16=New Mexico
TTITLE17=The Story of a Broken Heart
TTITLE18=You Win Again
TTITLE19=Rock 'N' Roll Ruby
EXTD=
EXTT0=
EXTT1=
EXTT2=
EXTT3=
EXTT4=
EXTT5=
EXTT6=
EXTT7=
EXTT8=
EXTT9=
EXTT10=
EXTT11=
EXTT12=
EXTT13=
EXTT14=
EXTT15=
EXTT16=
EXTT17=
EXTT18=
EXTT19=
PLAYORDER=
